<mxfile host="app.diagrams.net" modified="2020-09-23T09:14:41.297Z" agent="5.0 (Windows NT 10.0; Win64; x64) AppleWebKit/537.36 (KHTML, like Gecko) Chrome/85.0.4183.102 Safari/537.36" etag="pnKp465DO4F-4L_hkx4y" version="13.7.4" type="github">
  <diagram id="HtavSG9tKs9IYkskBHLj" name="Page-1">
    <mxGraphModel dx="1024" dy="700" grid="1" gridSize="10" guides="1" tooltips="1" connect="1" arrows="1" fold="1" page="1" pageScale="1" pageWidth="827" pageHeight="1169" background="none" math="0" shadow="0">
      <root>
        <mxCell id="0" />
        <mxCell id="1" parent="0" />
        <mxCell id="5iEE5CJu3XW8mEWYPceY-4" value="&lt;div&gt;Appli Taquin&lt;/div&gt;" style="html=1;align=left;verticalAlign=top;" parent="1" vertex="1">
          <mxGeometry x="280" y="250" width="330" height="770" as="geometry" />
        </mxCell>
        <mxCell id="gWeK60J27i3HBwq5DXVA-22" style="rounded=0;orthogonalLoop=1;jettySize=auto;html=1;exitX=1;exitY=0.3333333333333333;exitDx=0;exitDy=0;exitPerimeter=0;entryX=0;entryY=0.5;entryDx=0;entryDy=0;endArrow=none;endFill=0;" parent="1" source="gWeK60J27i3HBwq5DXVA-1" target="gWeK60J27i3HBwq5DXVA-20" edge="1">
          <mxGeometry relative="1" as="geometry" />
        </mxCell>
        <mxCell id="gWeK60J27i3HBwq5DXVA-23" style="rounded=0;orthogonalLoop=1;jettySize=auto;html=1;exitX=1;exitY=0.3333333333333333;exitDx=0;exitDy=0;exitPerimeter=0;entryX=0;entryY=0.5;entryDx=0;entryDy=0;endArrow=none;endFill=0;" parent="1" source="gWeK60J27i3HBwq5DXVA-1" target="gWeK60J27i3HBwq5DXVA-19" edge="1">
          <mxGeometry relative="1" as="geometry" />
        </mxCell>
        <mxCell id="gWeK60J27i3HBwq5DXVA-24" style="rounded=0;orthogonalLoop=1;jettySize=auto;html=1;exitX=1;exitY=0.3333333333333333;exitDx=0;exitDy=0;exitPerimeter=0;entryX=0;entryY=0.5;entryDx=0;entryDy=0;endArrow=none;endFill=0;" parent="1" source="gWeK60J27i3HBwq5DXVA-1" target="gWeK60J27i3HBwq5DXVA-15" edge="1">
          <mxGeometry relative="1" as="geometry" />
        </mxCell>
        <mxCell id="gWeK60J27i3HBwq5DXVA-25" style="rounded=0;orthogonalLoop=1;jettySize=auto;html=1;exitX=1;exitY=0.3333333333333333;exitDx=0;exitDy=0;exitPerimeter=0;entryX=0;entryY=0.5;entryDx=0;entryDy=0;endArrow=none;endFill=0;" parent="1" source="gWeK60J27i3HBwq5DXVA-1" target="gWeK60J27i3HBwq5DXVA-16" edge="1">
          <mxGeometry relative="1" as="geometry" />
        </mxCell>
        <mxCell id="gWeK60J27i3HBwq5DXVA-26" style="rounded=0;orthogonalLoop=1;jettySize=auto;html=1;exitX=1;exitY=0.3333333333333333;exitDx=0;exitDy=0;exitPerimeter=0;entryX=0;entryY=0.5;entryDx=0;entryDy=0;endArrow=none;endFill=0;" parent="1" source="gWeK60J27i3HBwq5DXVA-1" target="gWeK60J27i3HBwq5DXVA-17" edge="1">
          <mxGeometry relative="1" as="geometry" />
        </mxCell>
        <mxCell id="gWeK60J27i3HBwq5DXVA-27" style="rounded=0;orthogonalLoop=1;jettySize=auto;html=1;exitX=1;exitY=0.3333333333333333;exitDx=0;exitDy=0;exitPerimeter=0;entryX=0;entryY=0.5;entryDx=0;entryDy=0;endArrow=none;endFill=0;" parent="1" source="gWeK60J27i3HBwq5DXVA-1" target="gWeK60J27i3HBwq5DXVA-18" edge="1">
          <mxGeometry relative="1" as="geometry" />
        </mxCell>
        <mxCell id="gWeK60J27i3HBwq5DXVA-1" value="Utilisateur" style="shape=umlActor;verticalLabelPosition=bottom;verticalAlign=top;html=1;outlineConnect=0;" parent="1" vertex="1">
          <mxGeometry x="90" y="555" width="30" height="60" as="geometry" />
        </mxCell>
        <mxCell id="gWeK60J27i3HBwq5DXVA-15" value="&lt;div&gt;Lancer nouvelle partie&lt;br&gt;&lt;/div&gt;" style="ellipse;whiteSpace=wrap;html=1;align=center;" parent="1" vertex="1">
          <mxGeometry x="365" y="540" width="140" height="70" as="geometry" />
        </mxCell>
        <mxCell id="gWeK60J27i3HBwq5DXVA-29" value="&lt;div&gt;&amp;lt;&amp;lt;include&amp;gt;&amp;gt;&lt;/div&gt;" style="edgeStyle=none;rounded=0;orthogonalLoop=1;jettySize=auto;html=1;exitX=0.5;exitY=0;exitDx=0;exitDy=0;entryX=0.5;entryY=1;entryDx=0;entryDy=0;endArrow=open;endFill=0;dashed=1;" parent="1" source="gWeK60J27i3HBwq5DXVA-16" target="gWeK60J27i3HBwq5DXVA-15" edge="1">
          <mxGeometry x="0.3333" y="-35" relative="1" as="geometry">
            <mxPoint as="offset" />
          </mxGeometry>
        </mxCell>
        <mxCell id="gWeK60J27i3HBwq5DXVA-16" value="Enregistrer partie actuelle" style="ellipse;whiteSpace=wrap;html=1;align=center;" parent="1" vertex="1">
          <mxGeometry x="365" y="640" width="140" height="70" as="geometry" />
        </mxCell>
        <mxCell id="gWeK60J27i3HBwq5DXVA-30" value="&amp;lt;&amp;lt;include&amp;gt;&amp;gt;" style="edgeStyle=none;rounded=0;orthogonalLoop=1;jettySize=auto;html=1;exitX=0.5;exitY=0;exitDx=0;exitDy=0;entryX=0.5;entryY=1;entryDx=0;entryDy=0;dashed=1;endArrow=open;endFill=0;" parent="1" source="gWeK60J27i3HBwq5DXVA-17" target="gWeK60J27i3HBwq5DXVA-16" edge="1">
          <mxGeometry x="0.3333" y="-25" relative="1" as="geometry">
            <mxPoint as="offset" />
          </mxGeometry>
        </mxCell>
        <mxCell id="gWeK60J27i3HBwq5DXVA-17" value="Reprendre partie enregistrÃ©e" style="ellipse;whiteSpace=wrap;html=1;align=center;" parent="1" vertex="1">
          <mxGeometry x="365" y="740" width="140" height="70" as="geometry" />
        </mxCell>
        <mxCell id="gWeK60J27i3HBwq5DXVA-18" value="Voir scores/classements" style="ellipse;whiteSpace=wrap;html=1;align=center;" parent="1" vertex="1">
          <mxGeometry x="360" y="830" width="140" height="70" as="geometry" />
        </mxCell>
        <mxCell id="gWeK60J27i3HBwq5DXVA-19" value="Uploader une image de fond pour le taquin" style="ellipse;whiteSpace=wrap;html=1;align=center;" parent="1" vertex="1">
          <mxGeometry x="367" y="350" width="140" height="70" as="geometry" />
        </mxCell>
        <mxCell id="gWeK60J27i3HBwq5DXVA-20" value="Changer le style de l&#39;application Taquin" style="ellipse;whiteSpace=wrap;html=1;align=center;" parent="1" vertex="1">
          <mxGeometry x="367" y="270" width="140" height="70" as="geometry" />
        </mxCell>
        <mxCell id="gWeK60J27i3HBwq5DXVA-35" style="edgeStyle=none;rounded=0;orthogonalLoop=1;jettySize=auto;html=1;exitX=0;exitY=0.5;exitDx=0;exitDy=0;entryX=1;entryY=0.3333333333333333;entryDx=0;entryDy=0;entryPerimeter=0;endArrow=none;endFill=0;targetPerimeterSpacing=6;" parent="1" source="gWeK60J27i3HBwq5DXVA-34" target="gWeK60J27i3HBwq5DXVA-1" edge="1">
          <mxGeometry relative="1" as="geometry" />
        </mxCell>
        <mxCell id="gWeK60J27i3HBwq5DXVA-34" value="Jouer en ligne" style="ellipse;whiteSpace=wrap;html=1;align=center;" parent="1" vertex="1">
          <mxGeometry x="367" y="920" width="140" height="70" as="geometry" />
        </mxCell>
        <mxCell id="gWeK60J27i3HBwq5DXVA-37" style="edgeStyle=none;rounded=0;orthogonalLoop=1;jettySize=auto;html=1;exitX=0.5;exitY=0.5;exitDx=0;exitDy=0;exitPerimeter=0;entryX=1;entryY=0.5;entryDx=0;entryDy=0;endArrow=none;endFill=0;targetPerimeterSpacing=6;" parent="1" source="gWeK60J27i3HBwq5DXVA-36" target="gWeK60J27i3HBwq5DXVA-34" edge="1">
          <mxGeometry relative="1" as="geometry" />
        </mxCell>
        <mxCell id="gWeK60J27i3HBwq5DXVA-36" value="&lt;div&gt;Second joueur&lt;/div&gt;" style="shape=umlActor;verticalLabelPosition=bottom;verticalAlign=top;html=1;align=center;" parent="1" vertex="1">
          <mxGeometry x="690" y="930" width="30" height="60" as="geometry" />
        </mxCell>
        <mxCell id="MfHcmHhM3iWISTbh1V6--1" value="Changer taille" style="ellipse;whiteSpace=wrap;html=1;" vertex="1" parent="1">
          <mxGeometry x="367" y="440" width="140" height="70" as="geometry" />
        </mxCell>
      </root>
    </mxGraphModel>
  </diagram>
</mxfile>
